<svg id="Layer_1" data-name="Layer 1" xmlns="http://www.w3.org/2000/svg" viewBox="0 0 429.96 429.96"><defs><style>.cls-1{fill:#010101;}</style></defs><title>dott-sm</title><circle class="cls-1" cx="214.98" cy="6.26" r="6.26"/><circle class="cls-1" cx="173.24" cy="48" r="6.26"/><circle class="cls-1" cx="256.72" cy="48" r="6.26"/><circle class="cls-1" cx="131.49" cy="89.75" r="6.26"/><circle class="cls-1" cx="214.98" cy="89.75" r="6.26"/><circle class="cls-1" cx="298.47" cy="89.75" r="6.26"/><circle class="cls-1" cx="89.75" cy="131.49" r="6.26"/><circle class="cls-1" cx="173.24" cy="131.49" r="6.26"/><circle class="cls-1" cx="256.72" cy="131.49" r="6.26"/><circle class="cls-1" cx="340.21" cy="131.49" r="6.26"/><circle class="cls-1" cx="48" cy="173.24" r="6.26"/><circle class="cls-1" cx="131.49" cy="173.24" r="6.26"/><circle class="cls-1" cx="214.98" cy="173.24" r="6.26"/><circle class="cls-1" cx="298.47" cy="173.24" r="6.26"/><circle class="cls-1" cx="381.95" cy="173.24" r="6.26"/><circle class="cls-1" cx="6.26" cy="214.98" r="6.26"/><circle class="cls-1" cx="89.75" cy="214.98" r="6.26"/><circle class="cls-1" cx="173.24" cy="214.98" r="6.26"/><circle class="cls-1" cx="256.72" cy="214.98" r="6.26"/><circle class="cls-1" cx="340.21" cy="214.98" r="6.26"/><circle class="cls-1" cx="423.7" cy="214.98" r="6.26"/><circle class="cls-1" cx="48" cy="256.72" r="6.26"/><circle class="cls-1" cx="131.49" cy="256.72" r="6.26"/><circle class="cls-1" cx="214.98" cy="256.72" r="6.26"/><circle class="cls-1" cx="298.47" cy="256.72" r="6.26"/><circle class="cls-1" cx="381.95" cy="256.72" r="6.26"/><circle class="cls-1" cx="89.75" cy="298.47" r="6.26"/><circle class="cls-1" cx="173.24" cy="298.47" r="6.26"/><circle class="cls-1" cx="256.72" cy="298.47" r="6.26"/><circle class="cls-1" cx="340.21" cy="298.47" r="6.26"/><circle class="cls-1" cx="131.49" cy="340.21" r="6.26"/><circle class="cls-1" cx="214.98" cy="340.21" r="6.26"/><circle class="cls-1" cx="298.47" cy="340.21" r="6.26"/><circle class="cls-1" cx="173.24" cy="381.95" r="6.26"/><circle class="cls-1" cx="256.72" cy="381.95" r="6.26"/><circle class="cls-1" cx="214.98" cy="423.7" r="6.26"/></svg>